<svg width="128" height="128" viewBox="0 0 128 128" fill="none" xmlns="http://www.w3.org/2000/svg">
<rect width="128" height="128" fill="#232323"/>
<path d="M41.1538 64C56.3846 43.6923 71.6154 43.6923 86.8462 64L91.9231 69.0769C73.3077 89.3846 55.5385 89.3846 38.6154 69.0769L31 58.9231V69.0769C53 96.1538 75 96.1538 97 69.0769L89.3846 58.9231C72.4615 38.6154 54.6923 38.6154 36.0769 58.9231L41.1538 64Z" fill="white"/>
<path d="M41.1538 64C56.3846 43.6923 71.6154 43.6923 86.8462 64M41.1538 64C56.3846 84.3077 71.6154 84.3077 86.8462 64M41.1538 64L36.0769 58.9231C54.6923 38.6154 72.4615 38.6154 89.3846 58.9231L97 69.0769M86.8462 64L91.9231 69.0769C73.3077 89.3846 55.5385 89.3846 38.6154 69.0769L31 58.9231M31 58.9231V69.0769C53 96.1538 75 96.1538 97 69.0769M31 58.9231C53 31.8462 75 31.8462 97 58.9231V69.0769" stroke="white" stroke-linecap="round" stroke-linejoin="round"/>
</svg>
