<svg width="16" height="16" viewBox="0 0 16 16" fill="none" xmlns="http://www.w3.org/2000/svg">
<rect width="16" height="16" fill="#232323"/>
<path d="M3.84615 8C6.61538 4.30769 9.38461 4.30769 12.1538 8L13.0769 8.92307C9.69231 12.6154 6.46154 12.6154 3.38462 8.92307L2 7.07692V8.92307C6 13.8462 10 13.8462 14 8.92307L12.6154 7.07692C9.53846 3.38461 6.30769 3.38461 2.92308 7.07692L3.84615 8Z" fill="white"/>
<path d="M3.84615 8C6.61538 4.30769 9.38461 4.30769 12.1538 8M3.84615 8C6.61538 11.6923 9.38461 11.6923 12.1538 8M3.84615 8L2.92308 7.07692C6.30769 3.38461 9.53846 3.38461 12.6154 7.07692L14 8.92307M12.1538 8L13.0769 8.92307C9.69231 12.6154 6.46154 12.6154 3.38462 8.92307L2 7.07692M2 7.07692V8.92307C6 13.8462 10 13.8462 14 8.92307M2 7.07692C6 2.15384 10 2.15384 14 7.07692V8.92307" stroke="white" stroke-width="0.25" stroke-linecap="round" stroke-linejoin="round"/>
</svg>
