<svg width="180" height="180" viewBox="0 0 180 180" fill="none" xmlns="http://www.w3.org/2000/svg">
<rect width="180" height="180" fill="#232323"/>
<path d="M59.5385 90C79.8462 62.9231 100.154 62.9231 120.462 90L127.231 96.7692C102.41 123.846 78.7179 123.846 56.1538 96.7692L46 83.2308V96.7692C75.3333 132.872 104.667 132.872 134 96.7692L123.846 83.2308C101.282 56.1538 77.5897 56.1538 52.7692 83.2308L59.5385 90Z" fill="white"/>
<path d="M59.5385 90C79.8462 62.9231 100.154 62.9231 120.462 90M59.5385 90C79.8462 117.077 100.154 117.077 120.462 90M59.5385 90L52.7692 83.2308C77.5897 56.1538 101.282 56.1538 123.846 83.2308L134 96.7692M120.462 90L127.231 96.7692C102.41 123.846 78.7179 123.846 56.1538 96.7692L46 83.2308M46 83.2308V96.7692C75.3333 132.872 104.667 132.872 134 96.7692M46 83.2308C75.3333 47.1282 104.667 47.1282 134 83.2308V96.7692" stroke="white" stroke-width="2" stroke-linecap="round" stroke-linejoin="round"/>
</svg>
