<svg width="192" height="192" viewBox="0 0 192 192" fill="none" xmlns="http://www.w3.org/2000/svg">
<rect width="192" height="192" fill="#232323"/>
<path d="M61.3846 96C84.4615 65.2308 107.538 65.2308 130.615 96L138.308 103.692C110.103 134.462 83.1795 134.462 57.5385 103.692L46 88.3077V103.692C79.3333 144.718 112.667 144.718 146 103.692L134.462 88.3077C108.821 57.5385 81.8974 57.5385 53.6923 88.3077L61.3846 96Z" fill="white"/>
<path d="M61.3846 96C84.4615 65.2308 107.538 65.2308 130.615 96M61.3846 96C84.4615 126.769 107.538 126.769 130.615 96M61.3846 96L53.6923 88.3077C81.8974 57.5385 108.821 57.5385 134.462 88.3077L146 103.692M130.615 96L138.308 103.692C110.103 134.462 83.1795 134.462 57.5385 103.692L46 88.3077M46 88.3077V103.692C79.3333 144.718 112.667 144.718 146 103.692M46 88.3077C79.3333 47.282 112.667 47.282 146 88.3077V103.692" stroke="white" stroke-width="2" stroke-linecap="round" stroke-linejoin="round"/>
</svg>
