<svg width="256" height="256" viewBox="0 0 256 256" fill="none" xmlns="http://www.w3.org/2000/svg">
<rect width="256" height="256" fill="#232323"/>
<path d="M78.1538 128C111.385 83.6923 144.615 83.6923 177.846 128L188.923 139.077C148.308 183.385 109.538 183.385 72.6154 139.077L56 116.923V139.077C104 198.154 152 198.154 200 139.077L183.385 116.923C146.462 72.6154 107.692 72.6154 67.0769 116.923L78.1538 128Z" fill="white"/>
<path d="M78.1538 128C111.385 83.6923 144.615 83.6923 177.846 128M78.1538 128C111.385 172.308 144.615 172.308 177.846 128M78.1538 128L67.0769 116.923C107.692 72.6154 146.462 72.6154 183.385 116.923L200 139.077M177.846 128L188.923 139.077C148.308 183.385 109.538 183.385 72.6154 139.077L56 116.923M56 116.923V139.077C104 198.154 152 198.154 200 139.077M56 116.923C104 57.8462 152 57.8462 200 116.923V139.077" stroke="white" stroke-width="2" stroke-linecap="round" stroke-linejoin="round"/>
</svg>
