<svg width="32" height="32" viewBox="0 0 32 32" fill="none" xmlns="http://www.w3.org/2000/svg">
<rect width="32" height="32" fill="#232323"/>
<path d="M10.4615 16C14.1538 11.0769 17.8462 11.0769 21.5385 16L22.7692 17.2308C18.2564 22.1539 13.9487 22.1539 9.84615 17.2308L8 14.7692V17.2308C13.3333 23.7949 18.6667 23.7949 24 17.2308L22.1538 14.7692C18.0513 9.84616 13.7436 9.84616 9.23077 14.7692L10.4615 16Z" fill="white"/>
<path d="M10.4615 16C14.1538 11.0769 17.8462 11.0769 21.5385 16M10.4615 16C14.1538 20.9231 17.8462 20.9231 21.5385 16M10.4615 16L9.23077 14.7692C13.7436 9.84616 18.0513 9.84616 22.1538 14.7692L24 17.2308M21.5385 16L22.7692 17.2308C18.2564 22.1539 13.9487 22.1539 9.84615 17.2308L8 14.7692M8 14.7692V17.2308C13.3333 23.7949 18.6667 23.7949 24 17.2308M8 14.7692C13.3333 8.20514 18.6667 8.20514 24 14.7692V17.2308" stroke="white" stroke-width="0.25" stroke-linecap="round" stroke-linejoin="round"/>
</svg>
