<svg width="48" height="48" viewBox="0 0 48 48" fill="none" xmlns="http://www.w3.org/2000/svg">
<rect width="48" height="48" fill="#232323"/>
<path d="M12.9231 24C20.3077 14.1539 27.6923 14.1539 35.0769 24L37.5385 26.4616C28.5128 36.3077 19.8974 36.3077 11.6923 26.4616L8 21.5385V26.4616C18.6667 39.5898 29.3333 39.5898 40 26.4616L36.3077 21.5385C28.1026 11.6923 19.4872 11.6923 10.4615 21.5385L12.9231 24Z" fill="white"/>
<path d="M12.9231 24C20.3077 14.1539 27.6923 14.1539 35.0769 24M12.9231 24C20.3077 33.8462 27.6923 33.8462 35.0769 24M12.9231 24L10.4615 21.5385C19.4872 11.6923 28.1026 11.6923 36.3077 21.5385L40 26.4616M35.0769 24L37.5385 26.4616C28.5128 36.3077 19.8974 36.3077 11.6923 26.4616L8 21.5385M8 21.5385V26.4616C18.6667 39.5898 29.3333 39.5898 40 26.4616M8 21.5385C18.6667 8.41027 29.3333 8.41027 40 21.5385V26.4616" stroke="white" stroke-linecap="round" stroke-linejoin="round"/>
</svg>
