<svg width="512" height="512" viewBox="0 0 512 512" fill="none" xmlns="http://www.w3.org/2000/svg">
<rect width="512" height="512" fill="#232323"/>
<path d="M145.231 256C219.077 157.538 292.923 157.538 366.769 256L391.385 280.615C301.128 379.077 214.974 379.077 132.923 280.615L96 231.385V280.615C202.667 411.897 309.333 411.897 416 280.615L379.077 231.385C297.026 132.923 210.872 132.923 120.615 231.385L145.231 256Z" fill="white"/>
<path d="M145.231 256C219.077 157.538 292.923 157.538 366.769 256M145.231 256C219.077 354.462 292.923 354.462 366.769 256M145.231 256L120.615 231.385C210.872 132.923 297.026 132.923 379.077 231.385L416 280.615M366.769 256L391.385 280.615C301.128 379.077 214.974 379.077 132.923 280.615L96 231.385M96 231.385V280.615C202.667 411.897 309.333 411.897 416 280.615M96 231.385C202.667 100.103 309.333 100.103 416 231.385V280.615" stroke="white" stroke-width="2" stroke-linecap="round" stroke-linejoin="round"/>
</svg>
