<svg width="64" height="64" viewBox="0 0 64 64" fill="none" xmlns="http://www.w3.org/2000/svg">
<rect width="64" height="64" fill="#232323"/>
<path d="M15.3846 32C26.4615 17.2308 37.5385 17.2308 48.6154 32L52.3077 35.6923C38.7692 50.4615 25.8462 50.4615 13.5385 35.6923L8 28.3077V35.6923C24 55.3846 40 55.3846 56 35.6923L50.4615 28.3077C38.1538 13.5385 25.2308 13.5385 11.6923 28.3077L15.3846 32Z" fill="white"/>
<path d="M15.3846 32C26.4615 17.2308 37.5385 17.2308 48.6154 32M15.3846 32C26.4615 46.7692 37.5385 46.7692 48.6154 32M15.3846 32L11.6923 28.3077C25.2308 13.5385 38.1538 13.5385 50.4615 28.3077L56 35.6923M48.6154 32L52.3077 35.6923C38.7692 50.4615 25.8462 50.4615 13.5385 35.6923L8 28.3077M8 28.3077V35.6923C24 55.3846 40 55.3846 56 35.6923M8 28.3077C24 8.61538 40 8.61538 56 28.3077V35.6923" stroke="white" stroke-linecap="round" stroke-linejoin="round"/>
</svg>
