<svg width="329" height="350" viewBox="0 0 329 350" fill="none" xmlns="http://www.w3.org/2000/svg">
<path d="M329 36.0628C253.4 122.565 258.16 43.5573 202.44 12.1084C132.79 -27.1852 96.46 38.3742 51.52 77.5977L0 36.0628L6.58 109.957C37.38 129.079 136.01 253.403 158.83 259.357C178.5 264.47 193.2 241.846 187.95 223.145C177.73 186.653 73.01 151.282 115.92 85.4424C171.92 -0.429123 281.68 178.108 329 204.164V36.0628Z" fill="white"/>
<path d="M0 148.13V316.231L51.52 274.696C134.89 374.296 194.67 375.907 277.41 274.696L328.86 323.165L322.28 242.266C286.37 219.013 200.76 103.793 168.07 94.758C147.56 89.0846 136.01 111.708 140.91 129.079C145.11 144.138 193.69 178.878 206.08 197.44C241.99 251.232 196.7 310.487 140 284.572C105.84 268.882 41.3 169.563 0 148.13Z" fill="white"/>
</svg>