<svg width="30" height="22" viewBox="0 0 30 22" fill="none" xmlns="http://www.w3.org/2000/svg">
<path d="M29.3333 18.6667V2.66667C29.3333 1.2 28.1333 0 26.6667 0H2.66667C1.2 0 0 1.2 0 2.66667V18.6667C0 20.1333 1.2 21.3333 2.66667 21.3333H26.6667C28.1333 21.3333 29.3333 20.1333 29.3333 18.6667ZM10.5333 11.9733L13.3333 15.3467L17.4667 10.0267C17.7333 9.68 18.2667 9.68 18.5333 10.04L23.2133 16.28C23.5467 16.72 23.2267 17.3467 22.68 17.3467H6.69333C6.13333 17.3467 5.82667 16.7067 6.17333 16.2667L9.49333 12C9.74667 11.6533 10.2533 11.64 10.5333 11.9733Z" fill="#717689"/>
</svg>
