<svg width="21" height="21" viewBox="0 0 21 21" fill="none" xmlns="http://www.w3.org/2000/svg">
<path d="M18.2133 17.2728L17.2667 18.2195C17 18.4862 16.5867 18.4862 16.32 18.2195C16.0533 17.9528 16.0533 17.5395 16.32 17.2728L17.2667 16.3262L14.68 13.7395L13.7333 14.6862C13.4667 14.9528 13.0533 14.9528 12.7867 14.6862C12.52 14.4195 12.52 14.0062 12.7867 13.7395L13.7333 12.7928L11.1467 10.2062L10.2 11.1528C9.93333 11.4195 9.52 11.4195 9.25333 11.1528C8.98667 10.8862 8.98667 10.4728 9.25333 10.2062L10.2 9.25949L7.6 6.65949L6.65333 7.60616C6.38667 7.87282 5.97333 7.87282 5.70667 7.60616C5.44 7.33949 5.44 6.92616 5.70667 6.65949L6.65333 5.71282L4.06667 3.12616L3.12 4.07282C2.85333 4.33949 2.44 4.33949 2.17333 4.07282C1.90667 3.80616 1.90667 3.39282 2.17333 3.12616L3.12 2.17949L1.13333 0.192824C0.72 -0.220509 0 0.0728246 0 0.672825V17.7262C0 19.1928 1.2 20.3928 2.66667 20.3928H19.72C20.32 20.3928 20.6133 19.6728 20.1867 19.2595L18.2133 17.2728ZM4 15.0595V8.71282L11.68 16.3928H5.33333C4.6 16.3928 4 15.7928 4 15.0595Z" fill="#717689"/>
</svg>
