<svg width="27" height="27" viewBox="0 0 27 27" fill="none" xmlns="http://www.w3.org/2000/svg">
<path d="M13.3333 0C5.98667 0 0 5.98667 0 13.3333C0 20.68 5.98667 26.6667 13.3333 26.6667C15.1733 26.6667 16.6667 25.1733 16.6667 23.3333C16.6667 22.52 16.36 21.7333 15.8133 21.1067C15.7067 20.9733 15.64 20.8267 15.64 20.6667C15.64 20.2933 15.9333 20 16.3067 20H18.6667C23.08 20 26.6667 16.4133 26.6667 12C26.6667 5.38667 20.68 0 13.3333 0ZM20.6667 14.6667C19.56 14.6667 18.6667 13.7733 18.6667 12.6667C18.6667 11.56 19.56 10.6667 20.6667 10.6667C21.7733 10.6667 22.6667 11.56 22.6667 12.6667C22.6667 13.7733 21.7733 14.6667 20.6667 14.6667ZM16.6667 9.33333C15.56 9.33333 14.6667 8.44 14.6667 7.33333C14.6667 6.22667 15.56 5.33333 16.6667 5.33333C17.7733 5.33333 18.6667 6.22667 18.6667 7.33333C18.6667 8.44 17.7733 9.33333 16.6667 9.33333ZM4 12.6667C4 11.56 4.89333 10.6667 6 10.6667C7.10667 10.6667 8 11.56 8 12.6667C8 13.7733 7.10667 14.6667 6 14.6667C4.89333 14.6667 4 13.7733 4 12.6667ZM12 7.33333C12 8.44 11.1067 9.33333 10 9.33333C8.89333 9.33333 8 8.44 8 7.33333C8 6.22667 8.89333 5.33333 10 5.33333C11.1067 5.33333 12 6.22667 12 7.33333Z" fill="#717689"/>
</svg>
